<svg xmlns="http://www.w3.org/2000/svg" width="29" height="28" viewBox="0 0 29 28" fill="none">
    <path opacity="0.32" d="M3.75 9.4C3.75 7.15979 3.75 6.03968 4.18597 5.18404C4.56947 4.43139 5.18139 3.81947 5.93404 3.43597C6.78968 3 7.90979 3 10.15 3H16.35C18.5902 3 19.7103 3 20.566 3.43597C21.3186 3.81947 21.9305 4.43139 22.314 5.18404C22.75 6.03968 22.75 7.15979 22.75 9.4V12H3.75V9.4Z" fill="#45AEF5"></path>
    <path opacity="0.32" d="M18.75 12.5H22.75V16.5H18.75V12.5Z" fill="#45AEF5"></path>
    <path fill-rule="evenodd" clip-rule="evenodd" d="M4.18597 8.18404C3.75 9.03969 3.75 10.1598 3.75 12.4V16.6C3.75 18.8402 3.75 19.9603 4.18597 20.816C4.56947 21.5686 5.18139 22.1805 5.93404 22.564C6.78969 23 7.90979 23 10.15 23H19.35C21.5902 23 22.7103 23 23.566 22.564C24.3186 22.1805 24.9305 21.5686 25.314 20.816C25.75 19.9603 25.75 18.8402 25.75 16.6V12.4C25.75 10.1598 25.75 9.03969 25.314 8.18404C24.9305 7.43139 24.3186 6.81947 23.566 6.43597C22.7103 6 21.5902 6 19.35 6H10.15C7.90979 6 6.78969 6 5.93404 6.43597C5.18139 6.81947 4.56947 7.43139 4.18597 8.18404ZM20.5 12.75C19.5335 12.75 18.75 13.5335 18.75 14.5C18.75 15.4665 19.5335 16.25 20.5 16.25C21.4665 16.25 22.25 15.4665 22.25 14.5C22.25 13.5335 21.4665 12.75 20.5 12.75Z" fill="#45AEF5"></path>
</svg>