<svg width="22" height="22" viewBox="0 0 22 22" fill="none" xmlns="http://www.w3.org/2000/svg">
<path fill-rule="evenodd" clip-rule="evenodd" d="M4.64756 -1.32623e-06L5.5 2.48847e-06C6.32842 2.48847e-06 7 0.671575 7 1.5C7 2.32843 6.32842 3 5.5 3H3.8C3.51997 3 3.37996 3 3.273 3.0545L3.26692 3.05765C3.17764 3.10469 3.10468 3.17765 3.05764 3.26693L3.05449 3.27301C3 3.37996 3 3.51998 3 3.8V5.5C3 6.32843 2.32842 7 1.5 7C0.67157 7 -2.75714e-06 6.32843 -2.75714e-06 5.5L-5.14133e-06 4.64757C-4.20962e-05 4.13259 -7.59512e-05 3.65963 0.0322273 3.26426C0.0670545 2.83799 0.14678 2.37165 0.381474 1.91103C0.717031 1.25247 1.25246 0.717035 1.91103 0.381478C2.37164 0.146784 2.83799 0.0670582 3.26425 0.032231C3.65963 -7.22557e-05 4.13259 -3.82811e-05 4.64756 -1.32623e-06ZM3.05945 3.26175L3.05833 3.26478C3.05904 3.26264 3.05945 3.26175 3.05945 3.26175ZM3.26175 3.05946C3.26175 3.05946 3.26264 3.05904 3.26478 3.05833L3.26175 3.05946Z" fill="#45AEF5"/>
<path fill-rule="evenodd" clip-rule="evenodd" d="M16.5 3C15.6716 3 15 2.32843 15 1.5C15 0.671575 15.6716 2.48847e-06 16.5 2.48847e-06L17.3524 -1.32623e-06C17.8674 -3.82811e-05 18.3404 -7.22557e-05 18.7357 0.032231C19.162 0.0670582 19.6284 0.146784 20.089 0.381478C20.7475 0.717035 21.283 1.25247 21.6185 1.91103C21.8532 2.37165 21.9329 2.83799 21.9678 3.26426C22.0001 3.65962 22 4.13258 22 4.64754L22 5.5C22 6.32843 21.3284 7 20.5 7C19.6716 7 19 6.32843 19 5.5L19 3.8C19 3.51998 19 3.37996 18.9455 3.27301L18.9424 3.26693C18.8953 3.17765 18.8224 3.10469 18.7331 3.05765L18.727 3.0545C18.62 3 18.48 3 18.2 3H16.5ZM18.7382 3.05946L18.7352 3.05834C18.7374 3.05904 18.7382 3.05946 18.7382 3.05946ZM18.9405 3.26175C18.9405 3.26175 18.941 3.26263 18.9417 3.26475L18.9405 3.26175Z" fill="#45AEF5"/>
<path fill-rule="evenodd" clip-rule="evenodd" d="M19 16.5C19 15.6716 19.6716 15 20.5 15C21.3284 15 22 15.6716 22 16.5L22 17.3525C22 17.8674 22.0001 18.3404 21.9678 18.7357C21.9329 19.162 21.8532 19.6284 21.6185 20.089C21.283 20.7475 20.7475 21.283 20.089 21.6185C19.6284 21.8532 19.162 21.9329 18.7357 21.9678C18.3404 22.0001 17.8674 22 17.3525 22L16.5 22C15.6716 22 15 21.3284 15 20.5C15 19.6716 15.6716 19 16.5 19L18.2 19C18.48 19 18.62 19 18.727 18.9455L18.7331 18.9424C18.8223 18.8953 18.8953 18.8224 18.9424 18.7331L18.9455 18.727C19 18.62 19 18.48 19 18.2L19 16.5ZM18.9405 18.7383L18.9417 18.7352C18.941 18.7373 18.9405 18.7383 18.9405 18.7383ZM18.7382 18.9405C18.7382 18.9405 18.7374 18.941 18.7352 18.9417L18.7382 18.9405Z" fill="#45AEF5"/>
<path fill-rule="evenodd" clip-rule="evenodd" d="M5.5 19C6.32842 19 7 19.6716 7 20.5C7 21.3284 6.32842 22 5.5 22L4.64753 22C4.13257 22 3.65962 22.0001 3.26425 21.9678C2.83799 21.9329 2.37164 21.8532 1.91103 21.6185C1.25246 21.283 0.717031 20.7475 0.381474 20.089C0.14678 19.6284 0.0670545 19.162 0.0322273 18.7357C-7.59512e-05 18.3404 -4.20962e-05 17.8674 -5.14133e-06 17.3524L-2.75714e-06 16.5C-2.75714e-06 15.6716 0.67157 15 1.5 15C2.32842 15 3 15.6716 3 16.5V18.2C3 18.48 3 18.62 3.05449 18.727L3.05764 18.7331C3.10468 18.8224 3.17764 18.8953 3.26692 18.9424L3.273 18.9455C3.37996 19 3.51997 19 3.8 19L5.5 19ZM3.26175 18.9405L3.26474 18.9417C3.26263 18.941 3.26175 18.9405 3.26175 18.9405ZM3.05945 18.7383C3.05945 18.7383 3.05904 18.7374 3.05834 18.7353L3.05945 18.7383Z" fill="#45AEF5"/>
<path d="M4.49999 9.5C3.67157 9.5 2.99999 10.1716 2.99999 11C2.99999 11.8284 3.67157 12.5 4.49999 12.5H17.5C18.3284 12.5 19 11.8284 19 11C19 10.1716 18.3284 9.5 17.5 9.5H4.49999Z" fill="#45AEF5"/>
</svg>
