<svg width="23" height="17" viewBox="0 0 23 17" fill="none" xmlns="http://www.w3.org/2000/svg">
<path fill-rule="evenodd" clip-rule="evenodd" d="M1.18597 2.18404C0.75 3.03969 0.75 4.15979 0.75 6.4V10.6C0.75 12.8402 0.75 13.9603 1.18597 14.816C1.56947 15.5686 2.18139 16.1805 2.93404 16.564C3.78969 17 4.90979 17 7.15 17H16.35C18.5902 17 19.7103 17 20.566 16.564C21.3186 16.1805 21.9305 15.5686 22.314 14.816C22.75 13.9603 22.75 12.8402 22.75 10.6V6.4C22.75 4.15979 22.75 3.03969 22.314 2.18404C21.9305 1.43139 21.3186 0.819467 20.566 0.435974C19.7103 0 18.5902 0 16.35 0H7.15C4.90979 0 3.78969 0 2.93404 0.435974C2.18139 0.819467 1.56947 1.43139 1.18597 2.18404ZM17.5 6.75C16.5335 6.75 15.75 7.5335 15.75 8.5C15.75 9.4665 16.5335 10.25 17.5 10.25C18.4665 10.25 19.25 9.4665 19.25 8.5C19.25 7.5335 18.4665 6.75 17.5 6.75Z" fill="#45AEF5"/>
</svg>
