<svg width="15" height="16" viewBox="0 0 15 16" fill="none" xmlns="http://www.w3.org/2000/svg">
<path d="M13.7305 12.3479L14.65 5.35971C14.904 3.42979 15.0309 2.46482 14.8466 1.98849C14.4677 1.00941 13.3963 0.489943 12.3929 0.798846C11.9048 0.949131 11.2258 1.64646 9.86785 3.04111L3.0353 10.0583C1.65584 11.4751 0.96611 12.1834 0.787791 12.7528C0.422541 13.9192 0.954073 15.1786 2.0445 15.7305C2.57686 16 3.56556 16 5.54295 16H9.56643C10.5581 16 11.0539 16 11.471 15.8764C12.3125 15.6271 13.0027 15.0218 13.3596 14.22C13.5365 13.8226 13.6012 13.331 13.7305 12.3479Z" fill="#8994A3"/>
</svg>
