<svg xmlns="http://www.w3.org/2000/svg" width="29" height="28" viewBox="0 0 29 28" fill="none">
<path opacity="0.32" d="M11.7694 14.6521L10.8499 21.6403C10.596 23.5702 10.469 24.5352 10.6533 25.0115C11.0322 25.9906 12.1037 26.51 13.107 26.2011C13.5952 26.0508 14.2741 25.3535 15.6321 23.9589L22.4646 16.9417C23.8441 15.5249 24.5338 14.8165 24.7122 14.2471C25.0774 13.0808 24.5459 11.8214 23.4554 11.2695C22.9231 11 21.9344 11 19.957 11H15.9335C14.9419 11 14.4461 11 14.029 11.1236C13.1874 11.3728 12.4973 11.9781 12.1404 12.7799C11.9634 13.1774 11.8988 13.6689 11.7694 14.6521Z" fill="#45AEF5"></path>
<path d="M16.7305 13.3479L17.6499 6.35974C17.9039 4.42981 18.0309 3.46485 17.8465 2.98851C17.4676 2.00944 16.3962 1.48997 15.3928 1.79887C14.9047 1.94915 14.2257 2.64649 12.8678 4.04114L6.03521 11.0583C4.65575 12.4751 3.96602 13.1835 3.7877 13.7529C3.42245 14.9192 3.95398 16.1786 5.04441 16.7305C5.57677 17 6.56547 17 8.54286 17H12.5663C13.558 17 14.0538 17 14.4709 16.8765C15.3124 16.6272 16.0026 16.0219 16.3595 15.2201C16.5364 14.8227 16.6011 14.3311 16.7305 13.3479Z" fill="#45AEF5"></path>
</svg>
